<?xml version="1.0" ?><svg style="enable-background:new 0 0 512 512;" version="1.1" viewBox="0 0 512 512" xml:space="preserve" xmlns="http://www.w3.org/2000/svg" xmlns:xlink="http://www.w3.org/1999/xlink"><style type="text/css">
	.st0{fill:#1E1E1E;}
	.st1{fill:#464646;stroke:#21759B;stroke-width:2;stroke-miterlimit:10;}
	.st2{fill:#FFFFFF;}
</style><g id="Edges"/><g id="Background_Bottom"><g><path class="st0" d="M492.3,443.1c0,34.2-27.7,61.9-61.9,61.9H80.7c-34.2,0-61.9-27.7-61.9-61.9V93.4c0-34.2,27.7-61.9,61.9-61.9    h349.7c34.2,0,61.9,27.7,61.9,61.9V443.1z"/></g></g><g id="Background"><path class="st1" d="M492.3,418.4c0,34.2-27.7,61.9-61.9,61.9H80.7c-34.2,0-61.9-27.7-61.9-61.9V68.6c0-34.2,27.7-61.9,61.9-61.9   h349.7c34.2,0,61.9,27.7,61.9,61.9V418.4z"/></g><g id="Symbol"><g><path class="st2" d="M187.7,210.9c1.7,0.2,3.4,0.4,5,0.7c13,2.4,23.3,9.2,30.6,20.1c5.6,8.3,8.2,17.5,7.6,27.4    c-0.9,15.8-8,28.1-21.1,36.9c-6.6,4.4-13.9,6.8-21.7,7.3c-11,0.7-21.1-2-30.1-8.5c-10.3-7.4-16.8-17.5-18.8-30    c-2.4-14.9,1.6-28.1,11.8-39.3c7.4-8.1,16.7-12.8,27.5-14.3c1.1-0.2,2.2-0.3,3.3-0.4C183.7,210.9,185.7,210.9,187.7,210.9z     M184.7,293.6c20.1,0,36.4-16.3,36.5-36.4c0.1-20.1-16.3-36.5-36.4-36.5c-20.1,0-36.4,16.3-36.5,36.4    C148.3,277.2,164.6,293.6,184.7,293.6z"/><path class="st2" d="M287.9,210.9c1.7,0.2,3.4,0.4,5,0.7c10.6,1.9,19.4,6.9,26.6,14.8c6.6,7.4,10.5,16,11.5,25.9    c1.2,12.3-1.9,23.5-9.5,33.3c-7.3,9.4-16.8,15.2-28.5,17.2c-10,1.8-19.6,0.5-28.7-4.2c-13.4-6.9-21.9-17.9-24.8-32.7    c-2.8-14.4,0.7-27.4,10.2-38.7c6.9-8.3,15.9-13.4,26.5-15.5c2-0.4,4-0.6,6-0.9C284.1,210.9,286,210.9,287.9,210.9z M285,293.6    c20.1,0,36.4-16.3,36.4-36.4c0-20.1-16.3-36.5-36.4-36.5c-20.1,0-36.4,16.3-36.4,36.4C248.5,277.2,264.8,293.6,285,293.6z"/><path class="st2" d="M69.7,280.4c1.2-2.2,3.3-2.7,5.4-3.1c2-0.5,2.7,0,3.5,1.9c3.5,7.9,9.2,13,17.8,14.7    c12.2,2.5,24.8-6.2,27-18.4c2.6-14.2-7.3-25.7-19.4-27.7c-5.2-0.9-10,0.4-14.5,2.9c-3.7,2-6.9,4.7-9.4,8.1c-0.7,1-1.7,1.5-2.9,1.4    c-1.3-0.2-2.6-0.4-3.8-0.8c-1.1-0.3-1.7-1.2-1.8-2.4c0-0.3,0-0.6,0-0.8c0-13.1,0-26.1,0-39.2c0-0.5,0-1.1,0.1-1.6    c0.3-2.1,1.9-3.5,4-3.5c15.3,0,30.6,0,45.9,0c1.5,0,2.4,0.6,2.6,2.1c0.2,1.7,0.1,3.4,0,5.1c-0.1,1.2-0.8,1.6-2,1.7    c-0.3,0-0.7,0-1,0c-13.1,0-26.3,0-39.4,0c-0.4,0-0.8,0-1.3,0c0,8.1,0,16.2,0,24.5c0.3-0.2,0.5-0.4,0.8-0.5    c18.3-13.3,43.9-4.6,50.4,17.1c5.5,18.6-6.6,38.1-25.7,41.2c-15.6,2.6-30.7-6.2-36.1-21.1c0-0.1-0.1-0.2-0.2-0.3    C69.7,281.1,69.7,280.8,69.7,280.4z"/><path class="st2" d="M340.7,256c0-6.8-0.2-13.7,0-20.5c0.3-9.3,4.5-16.6,12.7-21.3c13.8-7.8,31.5,0.4,34.9,16    c3.2,14.9-7.9,27.3-20.6,29.1c-1.9,0.3-3.9,0.1-5.9,0c-1.4-0.1-2.1-0.8-2.1-2.2c0-1.4,0.1-2.8,0.4-4.1c0.3-1.7,1.2-2.3,2.9-2.3    c3,0,5.8-0.5,8.5-1.9c5.8-2.9,9.2-10.6,8.2-15.9c-1.1-6.3-6.2-11.4-12.6-12.5c-7.9-1.3-15.3,4-17,12.1c-0.3,1.4-0.4,2.8-0.4,4.2    c0,13.4,0,26.7,0,40.1c0,2.5-0.6,3.2-3.1,3.5c-1.2,0.1-2.4,0.1-3.5-0.1c-1.7-0.2-2.5-1.1-2.5-2.9    C340.7,270.2,340.7,263.1,340.7,256C340.7,256,340.7,256,340.7,256z"/><path class="st2" d="M417.5,229.5c1.2-1.2,2.4-2.5,3.6-3.7c4.3-4.3,8.5-8.5,12.8-12.8c1.6-1.6,2.8-1.7,4.6-0.3    c0.8,0.6,1.5,1.4,2.1,2.2c1.1,1.5,0.9,2.6-0.4,3.9c-5.3,5.3-10.6,10.6-15.8,15.8c-0.2,0.2-0.5,0.4-1.1,0.8c0.6,0.4,1,0.7,1.4,1    c5.2,5.1,10.3,10.3,15.4,15.4c1.5,1.5,1.6,2.6,0.3,4.2c-0.6,0.8-1.4,1.6-2.3,2.3c-1.5,1.1-2.8,0.9-4.1-0.4    c-5.3-5.3-10.5-10.5-15.8-15.8c-0.2-0.2-0.4-0.5-0.7-0.9c-1,1-1.8,1.9-2.7,2.8c-4.5,4.5-9.1,9.1-13.6,13.6c-1.8,1.8-3.1,1.8-5,0.2    c-0.7-0.6-1.3-1.3-1.8-2.1c-1-1.5-0.9-2.5,0.4-3.8c5.3-5.3,10.5-10.5,15.8-15.8c0.2-0.2,0.5-0.4,1-0.8c-1.3-1.2-2.4-2.2-3.5-3.3    c-4.4-4.4-8.8-8.9-13.2-13.3c-1.4-1.4-1.5-2.5-0.3-4c0.7-0.9,1.4-1.6,2.3-2.3c1.6-1.2,2.8-1.1,4.2,0.3c5.3,5.3,10.6,10.7,15.9,16    C417,229.1,417.2,229.2,417.5,229.5z"/></g></g></svg>