<?xml version="1.0" standalone="no"?>
<!DOCTYPE svg PUBLIC "-//W3C//DTD SVG 20010904//EN"
 "http://www.w3.org/TR/2001/REC-SVG-20010904/DTD/svg10.dtd">
<svg version="1.0" xmlns="http://www.w3.org/2000/svg"
 width="200.000000pt" height="200.000000pt" viewBox="0 0 200.000000 200.000000"
 preserveAspectRatio="xMidYMid meet">

<g transform="translate(0.000000,200.000000) scale(0.100000,-0.100000)"
fill="#000000" stroke="none">
<path d="M880 1994 c-166 -22 -372 -110 -507 -218 -99 -79 -197 -200 -257
-316 -302 -588 28 -1290 677 -1437 111 -25 318 -23 431 5 96 24 200 65 271
106 48 28 48 32 11 79 -13 17 -18 16 -84 -18 -366 -186 -794 -118 -1073 172
-164 170 -246 361 -256 598 -11 270 82 502 279 691 300 288 737 337 1101 123
101 -59 258 -219 316 -322 91 -163 127 -317 118 -513 l-6 -121 37 -11 c20 -6
38 -10 40 -8 12 13 23 166 18 251 -14 245 -118 478 -291 650 -124 125 -300
224 -465 265 -84 20 -284 33 -360 24z"/>
<path d="M854 1796 c-35 -15 -91 -113 -120 -211 -25 -82 -25 -281 -1 -387 l18
-77 73 87 c199 238 420 387 619 417 26 4 47 11 47 16 0 14 -108 80 -180 110
-36 15 -100 35 -142 43 -94 20 -271 21 -314 2z"/>
<path d="M645 1730 c-104 -54 -160 -96 -242 -184 -75 -80 -163 -233 -163 -283
0 -32 53 -121 110 -186 39 -45 135 -114 205 -150 53 -26 205 -81 210 -75 2 2
-14 64 -36 138 -104 362 -110 509 -28 704 16 39 27 71 26 73 -2 1 -39 -15 -82
-37z"/>
<path d="M1474 1560 c-131 -19 -272 -88 -404 -198 -105 -87 -108 -81 40 -107
52 -10 140 -32 196 -50 182 -59 299 -130 418 -251 57 -59 75 -72 80 -59 14 38
6 213 -14 291 -48 187 -182 390 -253 383 -7 -1 -35 -5 -63 -9z"/>
<path d="M1234 1144 c13 -35 86 -310 101 -379 28 -136 17 -253 -39 -430 -14
-43 -23 -81 -20 -84 3 -3 48 16 99 42 163 83 305 238 370 406 l28 71 -28 42
c-102 155 -235 252 -445 323 -59 20 -71 22 -66 9z"/>
<path d="M194 1114 c-4 -14 -4 -78 -2 -142 5 -97 11 -134 38 -214 36 -108 118
-244 160 -266 31 -16 159 -9 245 13 101 27 237 99 304 161 34 31 61 60 61 64
0 4 -25 11 -55 15 -179 22 -368 84 -491 160 -73 46 -192 157 -222 207 -20 35
-30 35 -38 2z"/>
<path d="M1165 793 c-206 -232 -393 -346 -620 -377 l-90 -12 65 -48 c83 -62
132 -86 255 -127 91 -31 110 -34 222 -34 148 0 160 7 215 116 52 102 68 173
68 300 0 90 -20 253 -33 265 -2 2 -39 -35 -82 -83z"/>
</g>
</svg>
